<svg width="531" height="653" viewBox="0 0 531 653" fill="none" xmlns="http://www.w3.org/2000/svg">
<path fill-rule="evenodd" clip-rule="evenodd" d="M241.333 153.667L128.333 87C125.398 85.3598 122.824 83.1444 120.765 80.4862C118.706 77.8281 117.204 74.7819 116.349 71.5299C115.495 68.2779 115.305 64.8869 115.791 61.5599C116.278 58.2328 117.43 55.0381 119.18 52.1668C120.929 49.2955 123.24 46.8066 125.974 44.8492C128.708 42.8917 131.809 41.5058 135.091 40.7745C138.373 40.0432 141.768 39.9814 145.075 40.5929C148.381 41.2044 151.53 42.4766 154.333 44.3333L266.333 111L241.333 153.667Z" fill="#FFA049"/>
<path fill-rule="evenodd" clip-rule="evenodd" d="M250 268.667L22.3333 137C19.488 135.358 16.9938 133.173 14.9933 130.567C12.9928 127.962 11.525 124.988 10.6738 121.815C8.95472 115.408 9.85141 108.58 13.1666 102.833C16.4818 97.0869 21.944 92.8929 28.3515 91.1738C34.759 89.4547 41.5869 90.3514 47.3333 93.6666L250 211V268.667Z" fill="#FFA049"/>
<path fill-rule="evenodd" clip-rule="evenodd" d="M519.334 102.667C515.945 97.2297 510.623 93.2786 504.438 91.6086C498.253 89.9387 491.665 90.6741 486 93.6666L291 205V153.333L404 86.6666C409.451 83.2846 413.369 77.9125 414.925 71.6895C416.481 65.4666 415.551 58.8823 412.334 53.3333C408.895 47.9474 403.525 44.0827 397.325 42.5329C391.126 40.9831 384.569 41.8659 379 45L254.334 117.667C250.382 119.987 247.104 123.298 244.824 127.274C242.544 131.249 241.341 135.751 241.334 140.333V625C240.927 628.503 241.266 632.052 242.329 635.414C243.391 638.777 245.153 641.876 247.498 644.509C249.844 647.143 252.719 649.25 255.937 650.693C259.154 652.136 262.641 652.882 266.167 652.882C269.693 652.882 273.18 652.136 276.397 650.693C279.615 649.25 282.49 647.143 284.836 644.509C287.181 641.876 288.943 638.777 290.005 635.414C291.068 632.052 291.407 628.503 291 625V263L510 137C515.756 133.652 519.962 128.173 521.709 121.748C523.455 115.322 522.602 108.468 519.334 102.667Z" fill="#FE8618"/>
<path d="M266.333 56C281.797 56 294.333 43.464 294.333 28C294.333 12.536 281.797 0 266.333 0C250.869 0 238.333 12.536 238.333 28C238.333 43.464 250.869 56 266.333 56Z" fill="#FE8618"/>
<path d="M182 285.667C185.831 287.76 189.028 290.844 191.257 294.598C193.485 298.351 194.663 302.635 194.667 307V443C194.688 447.415 193.523 451.754 191.295 455.565C189.067 459.376 185.857 462.519 182 464.667C178.225 466.773 173.989 467.918 169.667 468C165.244 467.881 160.909 466.74 157 464.667L13.0003 381.667C7.25391 378.351 3.05988 372.889 1.34079 366.482C-0.378291 360.074 0.518411 353.246 3.83362 347.5C7.14882 341.754 12.611 337.56 19.0185 335.841C25.426 334.121 32.2539 335.018 38.0003 338.333L144.667 399.667V321.667L96.3336 294C90.8347 290.667 86.8312 285.344 85.1551 279.137C83.479 272.929 84.2592 266.314 87.3336 260.667C90.6072 255.103 95.9312 251.045 102.163 249.362C108.395 247.68 115.038 248.507 120.667 251.667L182 285.667Z" fill="#FFA049"/>
<path d="M41.333 261.667C56.797 261.667 69.333 249.131 69.333 233.667C69.333 218.203 56.797 205.667 41.333 205.667C25.869 205.667 13.333 218.203 13.333 233.667C13.333 249.131 25.869 261.667 41.333 261.667Z" fill="#FFA049"/>
<path d="M410.666 250.667C416.295 247.507 422.938 246.68 429.17 248.362C435.402 250.045 440.726 254.103 444 259.667C447.074 265.314 447.854 271.929 446.178 278.137C444.502 284.344 440.499 289.667 435 293L386.666 320.667V398.667L493.333 337.333C496.178 335.692 499.319 334.627 502.576 334.199C505.833 333.771 509.142 333.989 512.315 334.841C515.487 335.692 518.461 337.16 521.067 339.16C523.672 341.161 525.858 343.655 527.5 346.5C529.141 349.345 530.206 352.486 530.634 355.743C531.062 359 530.844 362.309 529.992 365.482C529.141 368.655 527.673 371.628 525.673 374.234C523.672 376.839 521.178 379.025 518.333 380.667L374.333 463.667C370.425 465.74 366.089 466.881 361.666 467C357.344 466.918 353.108 465.773 349.333 463.667C345.476 461.519 342.266 458.376 340.038 454.565C337.81 450.754 336.646 446.415 336.666 442V307C336.67 302.635 337.848 298.351 340.076 294.598C342.305 290.844 345.502 287.76 349.333 285.667L410.666 250.667Z" fill="#FE8618"/>
<path d="M490.667 261.667C506.131 261.667 518.667 249.131 518.667 233.667C518.667 218.203 506.131 205.667 490.667 205.667C475.203 205.667 462.667 218.203 462.667 233.667C462.667 249.131 475.203 261.667 490.667 261.667Z" fill="#FE8618"/>
</svg>
